<mxfile host="app.diagrams.net" modified="2022-04-27T11:02:37.194Z" agent="5.0 (Macintosh; Intel Mac OS X 10_15_7) AppleWebKit/605.1.15 (KHTML, like Gecko) Version/15.3 Safari/605.1.15" etag="r8v_XP0ATXVgHaJxx0ai" version="17.4.6" type="github">
  <diagram id="rV0w56Vn8ydV6mdLnWPI" name="Page-1">
    <mxGraphModel dx="946" dy="562" grid="1" gridSize="10" guides="1" tooltips="1" connect="1" arrows="1" fold="1" page="1" pageScale="1" pageWidth="827" pageHeight="1169" math="0" shadow="0">
      <root>
        <mxCell id="0" />
        <mxCell id="1" parent="0" />
        <mxCell id="XC16-eyLlCOi7QdVN5pe-3" value="" style="edgeStyle=orthogonalEdgeStyle;rounded=0;orthogonalLoop=1;jettySize=auto;html=1;" edge="1" parent="1" source="XC16-eyLlCOi7QdVN5pe-1" target="XC16-eyLlCOi7QdVN5pe-2">
          <mxGeometry relative="1" as="geometry" />
        </mxCell>
        <mxCell id="XC16-eyLlCOi7QdVN5pe-1" value="Spin up virtual machine&lt;br&gt;" style="rounded=0;whiteSpace=wrap;html=1;" vertex="1" parent="1">
          <mxGeometry x="120" y="260" width="120" height="60" as="geometry" />
        </mxCell>
        <mxCell id="XC16-eyLlCOi7QdVN5pe-5" value="" style="edgeStyle=orthogonalEdgeStyle;rounded=0;orthogonalLoop=1;jettySize=auto;html=1;" edge="1" parent="1" source="XC16-eyLlCOi7QdVN5pe-2" target="XC16-eyLlCOi7QdVN5pe-4">
          <mxGeometry relative="1" as="geometry" />
        </mxCell>
        <mxCell id="XC16-eyLlCOi7QdVN5pe-2" value="Install dependencies" style="rounded=0;whiteSpace=wrap;html=1;" vertex="1" parent="1">
          <mxGeometry x="260" y="260" width="120" height="60" as="geometry" />
        </mxCell>
        <mxCell id="XC16-eyLlCOi7QdVN5pe-7" value="" style="edgeStyle=orthogonalEdgeStyle;rounded=0;orthogonalLoop=1;jettySize=auto;html=1;" edge="1" parent="1" source="XC16-eyLlCOi7QdVN5pe-4" target="XC16-eyLlCOi7QdVN5pe-6">
          <mxGeometry relative="1" as="geometry" />
        </mxCell>
        <mxCell id="XC16-eyLlCOi7QdVN5pe-4" value="Run pipeline jobs" style="rounded=0;whiteSpace=wrap;html=1;" vertex="1" parent="1">
          <mxGeometry x="400" y="260" width="120" height="60" as="geometry" />
        </mxCell>
        <mxCell id="XC16-eyLlCOi7QdVN5pe-9" value="" style="edgeStyle=orthogonalEdgeStyle;rounded=0;orthogonalLoop=1;jettySize=auto;html=1;" edge="1" parent="1" source="XC16-eyLlCOi7QdVN5pe-6" target="XC16-eyLlCOi7QdVN5pe-8">
          <mxGeometry relative="1" as="geometry" />
        </mxCell>
        <mxCell id="XC16-eyLlCOi7QdVN5pe-6" value="Save outputs" style="rounded=0;whiteSpace=wrap;html=1;" vertex="1" parent="1">
          <mxGeometry x="540" y="260" width="120" height="60" as="geometry" />
        </mxCell>
        <mxCell id="XC16-eyLlCOi7QdVN5pe-8" value="Kill virtual machine" style="rounded=0;whiteSpace=wrap;html=1;" vertex="1" parent="1">
          <mxGeometry x="680" y="260" width="120" height="60" as="geometry" />
        </mxCell>
      </root>
    </mxGraphModel>
  </diagram>
</mxfile>
